#N canvas 591 186 342 248 12;
#X floatatom 16 28 5 0 0 1 grain_dur graindurin graindur;
#X floatatom 16 51 5 0 0 1 samples_between samplesbtwnin samplesbtwn
;
#X floatatom 181 28 5 0 100 1 percent_sample percentsamplein percentsample
;
#X obj 16 8 tgl 15 0 onoff onoffin on/off 17 7 0 10 -262144 -1 -1 1
1;
#X floatatom 181 51 5 0 0 1 pitch pitchin pitch;
#X floatatom 16 74 5 0 0 1 offset_1 offset1in offset1;
#X floatatom 181 74 5 0 0 1 offset_2 offset2in offset2;
#X floatatom 16 97 5 0 0 1 offset_3 offset3in offset3;
#X floatatom 181 97 5 0 0 1 offset_4 offset4in offset4;
#X symbolatom 181 142 15 0 0 2 filename filenamein filename;
#X obj 16 142 bng 15 250 50 0 offsetstozero offsetstozeroin offsets_to_zero
17 7 0 10 -262144 -1 -1;
#X obj 19 172 hsl 128 15 0 1 0 0 volume volumein volume -2 -8 0 10
-262144 -1 -1 6350 1;
#N canvas 0 50 294 164 subpatches 0;
#N canvas 92 193 450 300 readfile 0;
#X obj 10 63 soundfiler;
#X floatatom 10 87 10 0 0 0 - - -;
#X obj 55 126 s dur;
#N canvas 0 50 450 250 (subpatch) 0;
#X array a1 44100 float 2;
#X coords 0 1 44100 -1 200 140 1 0 0;
#X restore 231 33 graph;
#X obj 10 220 /;
#X obj 55 174 / 1000;
#X obj 55 150 r sr;
#X floatatom 10 244 5 0 0 0 - - -;
#X obj 10 267 s dur_ms;
#X obj 10 15 r filename;
#X msg 10 39 read -resize audio/\$1.wav a1;
#X connect 0 0 1 0;
#X connect 1 0 2 0;
#X connect 1 0 4 0;
#X connect 4 0 7 0;
#X connect 5 0 4 1;
#X connect 6 0 5 0;
#X connect 7 0 8 0;
#X connect 9 0 10 0;
#X connect 10 0 0 0;
#X restore 19 9 pd readfile;
#N canvas 344 156 662 657 playsound 0;
#X obj 312 192 tabread4~ a1;
#X obj 280 430 dac~;
#X obj 313 162 line~;
#N canvas 421 124 801 872 splitgrains 0;
#X obj 463 819 outlet;
#X obj 19 54 metro;
#X obj 18 33 tgl 15 0 empty empty empty 17 7 0 10 -262144 -1 -1 1 1
;
#X obj 19 78 f;
#X obj 19 102 + 1;
#X floatatom 19 126 5 0 0 0 - - -;
#X msg 203 178 0;
#X obj 203 202 t f f;
#X obj 423 559 f;
#X obj 450 592 *;
#X obj 203 252 s sgout;
#X obj 626 327 r graindur;
#X obj 365 597 + 1;
#X obj 219 748 *;
#X obj 220 717 f;
#X obj 244 496 r graindur;
#X obj 317 699 f;
#X obj 625 500 r graindur_ms;
#X obj 237 789 pack;
#X obj 461 790 r sgout;
#X obj 19 155 moses;
#X obj 202 156 bng 15 250 50 0 empty empty empty 17 7 0 10 -262144
-1 -1;
#X obj 318 761 * 2;
#X obj 334 731 r pitch;
#X obj 330 18 r percentsample;
#X obj 332 121 / 100;
#X obj 332 145 *;
#X obj 334 92 t f b;
#X obj 380 121 f;
#X floatatom 332 170 5 0 0 0 - - -;
#X obj 463 23 r numgrains;
#X obj 333 68 f;
#X obj 463 72 t b f;
#X obj 332 193 moses 1;
#X floatatom 380 219 5 0 0 0 - - -;
#X obj 18 6 r onoff;
#X obj 626 393 f;
#X obj 669 386 t b f;
#X obj 669 362 r offset1;
#X floatatom 688 549 5 0 0 0 - - -;
#X obj 625 554 f;
#X obj 688 572 t b f;
#X obj 625 600 +;
#X obj 689 523 r offset2;
#X floatatom 514 375 5 0 0 0 - - -;
#X obj 471 350 f;
#X obj 514 398 t b f;
#X obj 474 426 +;
#X obj 515 349 r offset3;
#X floatatom 299 546 5 0 0 0 - - -;
#X obj 244 555 f;
#X obj 299 569 t b f;
#X obj 259 597 +;
#X obj 300 521 r offset4;
#X obj 29 722 s rampend;
#X obj 31 699 del;
#X obj 55 674 r graindur_ms;
#X floatatom 330 42 5 0 0 0 - - -;
#X floatatom 463 47 5 0 0 0 - - -;
#X obj 106 14 r graintotaldur_ms;
#X obj 71 124 r counterlimit;
#X obj 380 242 s counterlimit;
#X obj 234 226 s counterzero;
#X obj 71 62 r counterzero;
#X obj 201 126 r resetcounter;
#X obj 51 179 s resetcounter;
#X obj 445 527 r offsetgraindur;
#X obj 626 463 s offsetgraindur;
#X obj 625 653 s offsetgraindur_ms;
#X obj 352 675 r offsetgraindur_ms;
#X obj 474 481 s offsetcounter;
#X obj 475 558 r offsetcounter;
#X obj 450 616 s sgout;
#X obj 237 813 s sgout;
#X obj 19 204 t b f f;
#X obj 65 229 s path1;
#X obj 42 255 s path2;
#X obj 19 277 s path3;
#X obj 470 307 r path1;
#X obj 401 307 r path2;
#X obj 401 355 t f b;
#X obj 288 307 r path3;
#X obj 290 351 t b b b;
#X obj 356 380 s 3a;
#X obj 316 661 r 3a;
#X obj 198 665 r 3b;
#X obj 320 380 s 3b;
#X obj 281 380 s 3c;
#X obj 31 643 r 3c;
#X floatatom 106 38 5 0 0 0 - - -;
#X obj 626 417 +;
#X floatatom 626 441 5 0 0 0 - - -;
#X floatatom 474 450 5 0 0 0 - - -;
#X floatatom 625 624 5 0 0 0 - - -;
#X obj 80 91 s rampsend;
#X connect 1 0 3 0;
#X connect 1 0 94 0;
#X connect 2 0 1 0;
#X connect 3 0 4 0;
#X connect 4 0 3 1;
#X connect 4 0 5 0;
#X connect 5 0 20 0;
#X connect 6 0 7 0;
#X connect 7 0 10 0;
#X connect 7 1 62 0;
#X connect 8 0 9 0;
#X connect 9 0 72 0;
#X connect 11 0 36 0;
#X connect 11 0 36 1;
#X connect 12 0 13 1;
#X connect 13 0 18 0;
#X connect 14 0 13 0;
#X connect 15 0 50 1;
#X connect 15 0 50 0;
#X connect 16 0 22 0;
#X connect 17 0 40 0;
#X connect 17 0 40 1;
#X connect 18 0 73 0;
#X connect 19 0 0 0;
#X connect 20 0 74 0;
#X connect 20 1 65 0;
#X connect 21 0 6 0;
#X connect 22 0 18 1;
#X connect 23 0 22 1;
#X connect 24 0 57 0;
#X connect 25 0 26 0;
#X connect 26 0 29 0;
#X connect 27 0 25 0;
#X connect 27 1 28 0;
#X connect 28 0 26 1;
#X connect 29 0 33 0;
#X connect 30 0 58 0;
#X connect 31 0 27 0;
#X connect 32 0 31 0;
#X connect 32 1 28 1;
#X connect 33 1 34 0;
#X connect 34 0 61 0;
#X connect 35 0 2 0;
#X connect 36 0 90 0;
#X connect 37 0 36 0;
#X connect 37 1 90 1;
#X connect 38 0 37 0;
#X connect 39 0 41 0;
#X connect 40 0 42 0;
#X connect 41 0 40 0;
#X connect 41 1 42 1;
#X connect 42 0 93 0;
#X connect 43 0 39 0;
#X connect 44 0 46 0;
#X connect 45 0 47 0;
#X connect 46 0 45 0;
#X connect 46 1 47 1;
#X connect 47 0 92 0;
#X connect 48 0 44 0;
#X connect 49 0 51 0;
#X connect 50 0 52 0;
#X connect 51 0 50 0;
#X connect 51 1 52 1;
#X connect 52 0 14 1;
#X connect 53 0 49 0;
#X connect 55 0 54 0;
#X connect 56 0 55 1;
#X connect 57 0 31 1;
#X connect 57 0 31 0;
#X connect 58 0 32 0;
#X connect 59 0 89 0;
#X connect 60 0 20 1;
#X connect 63 0 3 1;
#X connect 64 0 21 0;
#X connect 66 0 8 1;
#X connect 69 0 16 1;
#X connect 71 0 9 1;
#X connect 74 0 77 0;
#X connect 74 1 76 0;
#X connect 74 2 75 0;
#X connect 78 0 45 1;
#X connect 78 0 45 0;
#X connect 79 0 80 0;
#X connect 80 0 12 0;
#X connect 80 1 8 0;
#X connect 81 0 82 0;
#X connect 82 0 87 0;
#X connect 82 1 86 0;
#X connect 82 2 83 0;
#X connect 84 0 16 0;
#X connect 85 0 14 0;
#X connect 88 0 55 0;
#X connect 89 0 1 1;
#X connect 90 0 91 0;
#X connect 91 0 67 0;
#X connect 92 0 70 0;
#X connect 93 0 68 0;
#X restore 313 135 pd splitgrains;
#X obj 137 156 +;
#X obj 109 33 r samplesbtwn;
#X obj 137 204 s graintotaldur;
#X floatatom 33 111 10 0 0 0 - - -;
#X obj 109 57 t b f;
#X obj 376 604 writesf~;
#X msg 554 531 stop;
#X floatatom 137 181 5 0 0 0 - - -;
#X obj 33 84 f;
#X obj 53 234 r dur;
#X obj 35 258 f;
#X obj 35 300 /;
#X obj 35 324 int;
#X obj 35 193 t b f;
#X floatatom 35 348 5 0 0 0 - - -;
#X obj 35 371 s numgrains;
#X obj 156 251 r sr;
#X floatatom 138 329 5 0 0 0 - - -;
#X obj 138 370 s graindur_ms;
#X obj 138 275 /;
#X obj 138 304 * 1000;
#X obj 313 386 *~;
#X obj 362 326 r volume;
#X msg 362 350 \$1 50;
#X obj 362 374 line~;
#X obj 29 35 r graindur;
#X text 236 29 User variables: Grain duration \, samples between grains
;
#X obj 448 240 r graintotaldur;
#X floatatom 448 264 10 0 0 0 - - -;
#X obj 464 293 /;
#X obj 537 270 r sr;
#X obj 537 294 / 1000;
#X floatatom 464 317 5 0 0 0 - - -;
#X text 239 58 Other: Grain duration in ms \, grain total duration
(grain + space) \, grain total duration in ms \, number of grains.
;
#X obj 418 396 r rec;
#X obj 418 418 sel 1 0;
#X obj 401 445 bng 15 250 50 0 empty empty empty 17 7 0 10 -262144
-1 -1;
#X obj 510 456 bng 15 250 50 0 empty empty empty 17 7 0 10 -262144
-1 -1;
#X msg 376 533 open out/\$1.wav \, start;
#X obj 385 507 symbol;
#X obj 418 481 r outfilename;
#X obj 33 134 t f f f;
#X obj 464 340 s graintotaldur_ms;
#X connect 0 0 25 0;
#X connect 2 0 0 0;
#X connect 3 0 2 0;
#X connect 4 0 11 0;
#X connect 5 0 8 0;
#X connect 7 0 45 0;
#X connect 8 0 12 0;
#X connect 8 1 4 1;
#X connect 10 0 9 0;
#X connect 11 0 6 0;
#X connect 12 0 7 0;
#X connect 13 0 14 1;
#X connect 14 0 15 0;
#X connect 15 0 16 0;
#X connect 16 0 18 0;
#X connect 17 0 14 0;
#X connect 17 1 15 1;
#X connect 18 0 19 0;
#X connect 20 0 23 1;
#X connect 21 0 22 0;
#X connect 23 0 24 0;
#X connect 24 0 21 0;
#X connect 25 0 1 0;
#X connect 25 0 1 1;
#X connect 25 0 9 0;
#X connect 26 0 27 0;
#X connect 27 0 28 0;
#X connect 28 0 25 1;
#X connect 29 0 12 0;
#X connect 29 0 12 1;
#X connect 31 0 32 0;
#X connect 32 0 33 0;
#X connect 33 0 36 0;
#X connect 34 0 35 0;
#X connect 35 0 33 1;
#X connect 36 0 46 0;
#X connect 38 0 39 0;
#X connect 39 0 40 0;
#X connect 39 1 41 0;
#X connect 40 0 43 0;
#X connect 41 0 10 0;
#X connect 42 0 9 0;
#X connect 43 0 42 0;
#X connect 44 0 43 1;
#X connect 45 0 17 0;
#X connect 45 1 23 0;
#X connect 45 2 4 0;
#X restore 19 37 pd playsound;
#N canvas 0 50 642 380 init 0;
#X obj 164 15 loadbang;
#X obj 168 37 bng 15 250 50 0 empty empty empty 17 7 0 10 -262144 -1
-1;
#X obj 546 129 samplerate~;
#X obj 551 156 s sr;
#X msg 62 147 500;
#X msg 272 271 500;
#X obj 272 295 s samplesbtwnin;
#X msg 406 317 50;
#X msg 433 272 1;
#X obj 433 296 s pitchin;
#X obj 406 347 s percentsamplein;
#X obj 103 320 s onoffin;
#X msg 363 46 \; pd dsp 1;
#X obj 471 257 s filenamein;
#X obj 61 176 s graindurin;
#X msg 471 233 symbol ms1;
#X msg 235 320 0.5;
#X msg 102 292 1;
#X obj 235 344 s volumein;
#X msg 503 182 symbol out;
#X obj 503 206 s outfilenamein;
#X obj 164 59 t b b b b b b b b b b;
#X connect 0 0 1 0;
#X connect 1 0 21 0;
#X connect 2 0 3 0;
#X connect 4 0 14 0;
#X connect 5 0 6 0;
#X connect 7 0 10 0;
#X connect 8 0 9 0;
#X connect 15 0 13 0;
#X connect 16 0 18 0;
#X connect 17 0 11 0;
#X connect 19 0 20 0;
#X connect 21 0 4 0;
#X connect 21 1 17 0;
#X connect 21 2 16 0;
#X connect 21 3 5 0;
#X connect 21 4 7 0;
#X connect 21 5 8 0;
#X connect 21 6 15 0;
#X connect 21 7 19 0;
#X connect 21 8 2 0;
#X connect 21 9 12 0;
#X restore 19 65 pd init;
#N canvas 0 50 544 300 logic 0;
#X obj 49 43 r numgrains;
#X obj 185 45 r endgrain;
#X obj 142 105 f;
#X obj 72 143 moses;
#X floatatom 72 167 5 0 0 0 - - -;
#X obj 49 67 t f b;
#X obj 72 222 s endgrainin;
#X obj 115 183 spigot;
#X obj 154 157 r endgrainlock;
#X obj 328 101 r offsetstozero;
#X obj 328 125 t b b b b;
#X msg 389 149 0;
#X obj 389 173 s offset1in;
#X msg 357 174 0;
#X obj 357 198 s offset2in;
#X msg 321 197 0;
#X msg 289 222 0;
#X obj 321 221 s offset3in;
#X obj 289 246 s offset4in;
#X connect 0 0 5 0;
#X connect 1 0 2 1;
#X connect 2 0 3 1;
#X connect 3 0 4 0;
#X connect 3 1 7 0;
#X connect 4 0 6 0;
#X connect 5 0 3 0;
#X connect 5 1 2 0;
#X connect 7 0 6 0;
#X connect 8 0 7 1;
#X connect 9 0 10 0;
#X connect 10 0 16 0;
#X connect 10 1 15 0;
#X connect 10 2 13 0;
#X connect 10 3 11 0;
#X connect 11 0 12 0;
#X connect 13 0 14 0;
#X connect 15 0 17 0;
#X connect 16 0 18 0;
#X restore 19 93 pd logic;
#N canvas 0 50 694 814 midi 0;
#X obj 22 14 ctlin;
#X obj 21 43 pack;
#X obj 17 603 / 127;
#X obj 17 675 line;
#X floatatom 17 699 5 0 0 0 - - -;
#X obj 69 605 / 127;
#X msg 69 653 \$1 100;
#X obj 69 677 line;
#X floatatom 69 701 5 0 0 0 - - -;
#X obj 69 724 int;
#X obj 69 748 s samplesbtwnin;
#X obj 183 567 / 127;
#X msg 183 615 \$1 100;
#X obj 183 639 line;
#X floatatom 183 663 5 0 0 0 - - -;
#X obj 183 688 s pitchin;
#X obj 183 591 * 4;
#X obj 125 620 * 100;
#X msg 125 644 \$1 100;
#X obj 125 668 line;
#X floatatom 125 692 5 0 0 0 - - -;
#X obj 125 715 s percentsamplein;
#X obj 107 559 + 1;
#X obj 123 591 / 128;
#X obj 238 567 / 127;
#X msg 260 641 \$1 100;
#X obj 260 665 line;
#X obj 260 689 s offset1in;
#X obj 317 563 / 127;
#X msg 317 611 \$1 100;
#X obj 317 635 line;
#X obj 317 587 * 100;
#X obj 317 659 s offset2in;
#X obj 238 591 * 200;
#X obj 238 615 - 100;
#X msg 17 651 \$1 200;
#X obj 375 512 / 127;
#X msg 375 584 \$1 100;
#X obj 375 608 line;
#X obj 375 632 s offset3in;
#X obj 434 490 / 127;
#X msg 434 562 \$1 100;
#X obj 434 586 line;
#X obj 434 514 * 200;
#X obj 434 610 s offset4in;
#X obj 375 536 * 100;
#X obj 375 560 - 50;
#X obj 17 772 s graindurin;
#X obj 220 96 sel 0;
#X msg 220 120 symbol ms1.wav;
#X obj 220 144 s filenamein;
#X obj 334 95 sel 0;
#X obj 334 143 s filenamein;
#X msg 334 119 symbol ms2.wav;
#X obj 224 175 sel 0;
#X obj 224 223 s filenamein;
#X obj 338 174 sel 0;
#X obj 338 222 s filenamein;
#X msg 224 199 symbol moog1.wav;
#X msg 338 198 symbol volca1.wav;
#X obj 224 257 sel 0;
#X obj 224 305 s filenamein;
#X obj 376 258 sel 0;
#X obj 376 306 s filenamein;
#X obj 228 336 sel 0;
#X obj 228 384 s filenamein;
#X obj 342 335 sel 0;
#X obj 342 383 s filenamein;
#X msg 342 359 symbol volca1.wav;
#X msg 224 281 symbol volcalong.wav;
#X msg 376 282 symbol volcalong2.wav;
#X obj 21 67 route 70 71 72 73 74 75 76 77 20 21 22 23 16 17 18 19
;
#X obj 17 746 int;
#X obj 17 722 + 2;
#X obj 17 627 * 1000;
#X obj 69 629 * 2000;
#X msg 228 360 symbol org1.wav;
#X connect 0 0 1 1;
#X connect 0 1 1 0;
#X connect 1 0 71 0;
#X connect 2 0 74 0;
#X connect 3 0 4 0;
#X connect 4 0 73 0;
#X connect 5 0 75 0;
#X connect 6 0 7 0;
#X connect 7 0 8 0;
#X connect 8 0 9 0;
#X connect 9 0 10 0;
#X connect 11 0 16 0;
#X connect 12 0 13 0;
#X connect 13 0 14 0;
#X connect 14 0 15 0;
#X connect 16 0 12 0;
#X connect 17 0 18 0;
#X connect 18 0 19 0;
#X connect 19 0 20 0;
#X connect 20 0 21 0;
#X connect 22 0 23 0;
#X connect 23 0 17 0;
#X connect 24 0 33 0;
#X connect 25 0 26 0;
#X connect 26 0 27 0;
#X connect 28 0 31 0;
#X connect 29 0 30 0;
#X connect 30 0 32 0;
#X connect 31 0 29 0;
#X connect 33 0 34 0;
#X connect 34 0 25 0;
#X connect 35 0 3 0;
#X connect 36 0 45 0;
#X connect 37 0 38 0;
#X connect 38 0 39 0;
#X connect 40 0 43 0;
#X connect 41 0 42 0;
#X connect 42 0 44 0;
#X connect 43 0 41 0;
#X connect 45 0 46 0;
#X connect 46 0 37 0;
#X connect 48 0 49 0;
#X connect 49 0 50 0;
#X connect 51 0 53 0;
#X connect 53 0 52 0;
#X connect 54 0 58 0;
#X connect 56 0 59 0;
#X connect 58 0 55 0;
#X connect 59 0 57 0;
#X connect 60 0 69 0;
#X connect 62 0 70 0;
#X connect 64 0 76 0;
#X connect 66 0 68 0;
#X connect 68 0 67 0;
#X connect 69 0 61 0;
#X connect 70 0 63 0;
#X connect 71 0 2 0;
#X connect 71 1 5 0;
#X connect 71 2 22 0;
#X connect 71 3 11 0;
#X connect 71 4 24 0;
#X connect 71 5 28 0;
#X connect 71 6 36 0;
#X connect 71 7 40 0;
#X connect 71 8 48 0;
#X connect 71 9 51 0;
#X connect 71 10 54 0;
#X connect 71 11 56 0;
#X connect 71 12 60 0;
#X connect 71 13 62 0;
#X connect 71 14 64 0;
#X connect 72 0 47 0;
#X connect 73 0 72 0;
#X connect 74 0 35 0;
#X connect 75 0 6 0;
#X connect 76 0 65 0;
#X restore 19 121 pd midi;
#X restore 181 172 pd subpatches;
#X obj 17 201 tgl 30 0 rec empty rec 34 15 0 10 -258113 -1 -1 0 1;
#X symbolatom 83 213 10 0 0 2 output_filename outfilenamein outfilename
;
